<svg width="23" height="26" viewBox="0 0 23 26" fill="none" xmlns="http://www.w3.org/2000/svg">
<path d="M6.1005 7.49581V6.35233C6.1005 3.69994 8.2723 1.09469 10.972 0.847136C11.7222 0.774728 12.4794 0.857425 13.1951 1.0899C13.9107 1.32238 14.5689 1.69949 15.1273 2.19696C15.6856 2.69444 16.1317 3.30125 16.437 3.97834C16.7422 4.65544 16.8998 5.38782 16.8995 6.12835V7.75516M7.90033 24.3886H15.0997C19.9232 24.3886 20.7871 22.4907 21.0391 20.1802L21.939 13.1071C22.263 10.2307 21.4231 7.88483 16.2996 7.88483H6.70044C1.57691 7.88483 0.736988 10.2307 1.06096 13.1071L1.96088 20.1802C2.21285 22.4907 3.07677 24.3886 7.90033 24.3886Z" stroke="#453326" stroke-width="1.5" stroke-miterlimit="10" stroke-linecap="round" stroke-linejoin="round"/>
</svg>
